<svg xmlns="http://www.w3.org/2000/svg" version="1.1" xmlns:xlink="http://www.w3.org/1999/xlink" xmlns:svgjs="http://svgjs.dev/svgjs" width="100%" height="100%" viewBox="0 0 1000 600"><rect width="1000" height="600" x="0" y="0" fill="#f4d35e"/><g><rect width="333.3333333333333" height="333.3333333333333" y="212.0730537523973" fill="#2e4057" transform="matrix(0.6584116992164669,0,0,0.6584116992164669,0,50.63334186449676)" x="189.85081481933594"/><path d="M365.2568925885366 375.73510554104024L417.2599722658185 375.73510554104024L417.2599722658185 443.54134332025166Q408.5350111199634 448.10605809192424 394.4941796070973 450.90844627453333Q380.45334809423116 453.7397250569631 366.0947199833372 453.7397250569631L366.0947199833372 453.7397250569631Q344.2534265188788 453.7397250569631 328.45026841694926 444.7836391125423Q312.61821971519896 435.82755316812154 304.21105516737174 418.98433347264637Q295.7750000197238 402.14111377717114 295.7750000197238 378.62416552311146L295.7750000197238 378.62416552311146Q295.7750000197238 355.3383420676174 304.0954927680889 338.49512237214225Q312.415985516454 321.651902676667 328.0169094196386 312.69581673224627Q343.6178333228232 303.73973078782547 364.85242419104657 303.73973078782547L364.85242419104657 303.73973078782547Q380.22222329566546 303.73973078782547 393.1363214155238 308.42000795878084Q406.02152893556143 313.1002851297362 415.1798490787272 322.258605272902L415.1798490787272 322.258605272902L408.7372453187084 335.37493759150533Q398.134395184507 326.21661744833955 387.8204510485128 322.258605272902Q377.5353975123392 318.30059309746446 364.85242419104657 318.30059309746446L364.85242419104657 318.30059309746446Q340.09318014469625 318.30059309746446 326.77461362734795 333.901517000649Q313.45604710999964 349.5024409038336 313.45604710999964 378.62416552311146L313.45604710999964 378.62416552311146Q313.45604710999964 408.381483338445 326.9768478260929 423.8668448423467Q340.49764854218625 439.38109694606914 366.4991883808272 439.38109694606914L366.4991883808272 439.38109694606914Q385.42253126339364 439.38109694606914 401.6590483626339 433.7474299810303L401.6590483626339 433.7474299810303L401.6590483626339 389.0247814585678L365.2568925885366 389.0247814585678L365.2568925885366 375.73510554104024Z " fill="#f4d35e" transform="matrix(0.6584116992164669,0,0,0.6584116992164669,0,50.63334186449676)"/><path d="M675.9993776349233 375.73510554104024L728.0024573122053 375.73510554104024L728.0024573122053 443.54134332025166Q719.2774961663501 448.10605809192424 705.236664653484 450.90844627453333Q691.1958331406179 453.7397250569631 676.8372050297239 453.7397250569631L676.8372050297239 453.7397250569631Q654.9959115652655 453.7397250569631 639.192753463336 444.7836391125423Q623.3607047615857 435.82755316812154 614.9535402137585 418.98433347264637Q606.5174850661106 402.14111377717114 606.5174850661106 378.62416552311146L606.5174850661106 378.62416552311146Q606.5174850661106 355.3383420676174 614.8379778144756 338.49512237214225Q623.1584705628406 321.651902676667 638.7593944660252 312.69581673224627Q654.3603183692098 303.73973078782547 675.5949092374333 303.73973078782547L675.5949092374333 303.73973078782547Q690.9647083420522 303.73973078782547 703.8788064619105 308.42000795878084Q716.7640139819482 313.1002851297362 725.9223341251138 322.258605272902L725.9223341251138 322.258605272902L719.4797303650951 335.37493759150533Q708.8768802308937 326.21661744833955 698.5629360948994 322.258605272902Q688.2778825587259 318.30059309746446 675.5949092374333 318.30059309746446L675.5949092374333 318.30059309746446Q650.835665191083 318.30059309746446 637.5170986737346 333.901517000649Q624.1985321563864 349.5024409038336 624.1985321563864 378.62416552311146L624.1985321563864 378.62416552311146Q624.1985321563864 408.381483338445 637.7193328724796 423.8668448423467Q651.2401335885729 439.38109694606914 677.241673427214 439.38109694606914L677.241673427214 439.38109694606914Q696.1650163097804 439.38109694606914 712.4015334090207 433.7474299810303L712.4015334090207 433.7474299810303L712.4015334090207 389.0247814585678L675.9993776349233 389.0247814585678L675.9993776349233 375.73510554104024ZM776.8853522088502 452.0640702673618L760.042132513375 452.0640702673618L760.042132513375 350.7736272959449L776.8853522088502 350.7736272959449L776.8853522088502 452.0640702673618ZM758.3664777237736 325.8121490508496L758.3664777237736 306.8599155684624L778.7632411971965 306.8599155684624L778.7632411971965 325.8121490508496L758.3664777237736 325.8121490508496ZM850.3252569531005 453.5086002583974Q835.9666288422065 453.5086002583974 825.0459821099773 447.06599649837864Q814.1253353777481 440.62339273835977 808.2027624145021 428.66268441258495Q802.2512988514354 416.7019760868101 802.2512988514354 400.8988179848805L802.2512988514354 400.8988179848805Q802.2512988514354 385.095659882951 808.2027624145021 373.1349515571761Q814.1253353777481 361.1742432314013 825.0459821099773 354.70274887156177Q835.9666288422065 348.26014511154295 850.3252569531005 348.26014511154295L850.3252569531005 348.26014511154295Q864.6549944641738 348.26014511154295 875.6912035956859 354.70274887156177Q886.7274127271978 361.1742432314013 892.6499856904438 373.1349515571761Q898.5725586536898 385.095659882951 898.5725586536898 400.8988179848805L898.5725586536898 400.8988179848805Q898.5725586536898 416.7019760868101 892.6499856904438 428.66268441258495Q886.7274127271978 440.62339273835977 875.6912035956859 447.06599649837864Q864.6549944641738 453.5086002583974 850.3252569531005 453.5086002583974L850.3252569531005 453.5086002583974ZM850.3252569531005 439.58333114481417Q865.2905876602294 439.58333114481417 873.2932838105667 429.70274600613055Q881.2959799609041 419.82216086744705 881.2959799609041 400.8988179848805L881.2959799609041 400.8988179848805Q881.2959799609041 382.379943499804 873.2066120111047 372.2971241623755Q865.0883534614845 362.2143048249469 850.3252569531005 362.2143048249469L850.3252569531005 362.2143048249469Q835.5332698448958 362.2143048249469 827.4439018950966 372.2971241623755Q819.3256433454765 382.379943499804 819.3256433454765 400.8988179848805L819.3256433454765 400.8988179848805Q819.3256433454765 419.619926668702 827.3283394958137 429.5871836068477Q835.3310356461509 439.58333114481417 850.3252569531005 439.58333114481417L850.3252569531005 439.58333114481417ZM966.5810306316464 453.5086002583974Q951.6156999245175 453.5086002583974 940.5794907930053 447.06599649837864Q929.5721722613141 440.62339273835977 923.6495992980681 428.8649186113299Q917.6981357350014 417.1064444843001 917.6981357350014 401.3032863823705L917.6981357350014 401.3032863823705Q917.6981357350014 385.50012828044095 923.851833496813 373.53941995466613Q929.976640658804 361.57871162889126 941.0995215897783 354.93387367012747Q952.2512931205731 348.26014511154295 967.216623827702 348.26014511154295L967.216623827702 348.26014511154295Q977.4150055644134 348.26014511154295 987.1800283038142 351.9003606889527Q996.9739416430355 355.5405762663624 1002.9831864057437 361.57871162889126L1002.9831864057437 361.57871162889126L997.3784100405255 374.05945075143893Q983.0197819296316 362.4165390236919 968.2566854212475 362.4165390236919L968.2566854212475 362.4165390236919Q952.6557615180632 362.4165390236919 943.9308003722081 372.6149207604033Q935.1769486265323 382.784411897294 935.1769486265323 401.3032863823705L935.1769486265323 401.3032863823705Q935.1769486265323 419.619926668702 943.9308003722081 429.5871836068477Q952.6557615180632 439.58333114481417 968.2566854212475 439.58333114481417L968.2566854212475 439.58333114481417Q983.0197819296316 439.58333114481417 997.3784100405255 427.9404194170671L997.3784100405255 427.9404194170671L1002.9831864057437 440.4211585396148Q996.540582645725 446.45929390214366 986.7755599063241 449.9839470802705Q976.9816465671026 453.5086002583974 966.5810306316464 453.5086002583974L966.5810306316464 453.5086002583974ZM1065.386882018482 453.5086002583974Q1051.0571445074088 453.5086002583974 1040.1364977751796 447.06599649837864Q1029.2158510429504 440.62339273835977 1023.2643874798837 428.66268441258495Q1017.3418145166377 416.7019760868101 1017.3418145166377 400.8988179848805L1017.3418145166377 400.8988179848805Q1017.3418145166377 385.095659882951 1023.2643874798837 373.1349515571761Q1029.2158510429504 361.1742432314013 1040.1364977751796 354.70274887156177Q1051.0571445074088 348.26014511154295 1065.386882018482 348.26014511154295L1065.386882018482 348.26014511154295Q1079.7455101293758 348.26014511154295 1090.781719260888 354.70274887156177Q1101.7890377925794 361.1742432314013 1107.740501355646 373.1349515571761Q1113.663074318892 385.095659882951 1113.663074318892 400.8988179848805L1113.663074318892 400.8988179848805Q1113.663074318892 416.7019760868101 1107.740501355646 428.66268441258495Q1101.7890377925794 440.62339273835977 1090.781719260888 447.06599649837864Q1079.7455101293758 453.5086002583974 1065.386882018482 453.5086002583974L1065.386882018482 453.5086002583974ZM1065.386882018482 439.58333114481417Q1080.3811033254317 439.58333114481417 1088.383799475769 429.70274600613055Q1096.3864956261061 419.82216086744705 1096.3864956261061 400.8988179848805L1096.3864956261061 400.8988179848805Q1096.3864956261061 382.379943499804 1088.268237076486 372.2971241623755Q1080.1788691266865 362.2143048249469 1065.386882018482 362.2143048249469L1065.386882018482 362.2143048249469Q1050.623785510098 362.2143048249469 1042.505526960478 372.2971241623755Q1034.4161590106785 382.379943499804 1034.4161590106785 400.8988179848805L1034.4161590106785 400.8988179848805Q1034.4161590106785 419.619926668702 1042.418855161016 429.5871836068477Q1050.4215513113531 439.58333114481417 1065.386882018482 439.58333114481417L1065.386882018482 439.58333114481417ZM1173.1488193497385 453.5086002583974Q1147.5517479085875 453.5086002583974 1132.5864172014585 440.4211585396148L1132.5864172014585 440.4211585396148L1138.1911935666767 427.9404194170671Q1146.3094521162968 434.38302317708593 1154.7455072639448 437.185411359695Q1163.152671811772 439.9877995423041 1173.784412545794 439.9877995423041L1173.784412545794 439.9877995423041Q1184.9939652762305 439.9877995423041 1190.9454288392972 436.14534976614937Q1196.868001802543 432.3028999899946 1196.868001802543 425.0224688351752L1196.868001802543 425.0224688351752Q1196.868001802543 418.98433347264637 1192.9099896271055 415.45968029451944Q1188.951977451668 411.90613651657185 1179.7936573085021 409.8260133294806L1179.7936573085021 409.8260133294806L1162.748203414282 405.8968917538637Q1149.8629958942445 402.9789411719718 1142.9870331369148 395.9007442158973Q1136.1110703795853 388.82254725982284 1136.1110703795853 378.4219313243665L1136.1110703795853 378.4219313243665Q1136.1110703795853 364.90113060827315 1146.7428111136076 356.58063785990805Q1157.345661247809 348.26014511154295 1175.0267083380845 348.26014511154295L1175.0267083380845 348.26014511154295Q1185.629558472286 348.26014511154295 1195.1923470129418 351.6981264902077Q1204.7551355535975 355.13610786887244 1211.2266299134371 361.57871162889126L1211.2266299134371 361.57871162889126L1205.5929629483983 373.85721655269396Q1191.6676938348148 361.9831800263812 1175.0267083380845 361.9831800263812L1175.0267083380845 361.9831800263812Q1164.4238582038834 361.9831800263812 1158.4723946408167 366.05675460110166Q1152.5498216775704 370.1014385760013 1152.5498216775704 377.3818697308208L1152.5498216775704 377.3818697308208Q1152.5498216775704 383.42000509334963 1156.1900372549803 387.0602206707594Q1159.83025283239 390.7004362481691 1167.94851138201 392.5783252365154L1167.94851138201 392.5783252365154L1185.225090074796 396.738571610698Q1199.3525933871242 400.0609905900799 1206.2285561444537 406.8213909481265Q1213.0756283019625 413.58179130617316 1213.0756283019625 424.3868756391195L1213.0756283019625 424.3868756391195Q1213.0756283019625 437.7054421564678 1202.3861063682991 445.621466507343Q1191.6676938348148 453.5086002583974 1173.1488193497385 453.5086002583974L1173.1488193497385 453.5086002583974ZM1280.6796318824292 453.5086002583974Q1266.3498943713557 453.5086002583974 1255.4292476391265 447.06599649837864Q1244.5086009068973 440.62339273835977 1238.5571373438306 428.66268441258495Q1232.6345643805848 416.7019760868101 1232.6345643805848 400.8988179848805L1232.6345643805848 400.8988179848805Q1232.6345643805848 385.095659882951 1238.5571373438306 373.1349515571761Q1244.5086009068973 361.1742432314013 1255.4292476391265 354.70274887156177Q1266.3498943713557 348.26014511154295 1280.6796318824292 348.26014511154295L1280.6796318824292 348.26014511154295Q1295.0382599933232 348.26014511154295 1306.074469124835 354.70274887156177Q1317.0817876565266 361.1742432314013 1323.0332512195932 373.1349515571761Q1328.9558241828393 385.095659882951 1328.9558241828393 400.8988179848805L1328.9558241828393 400.8988179848805Q1328.9558241828393 416.7019760868101 1323.0332512195932 428.66268441258495Q1317.0817876565266 440.62339273835977 1306.074469124835 447.06599649837864Q1295.0382599933232 453.5086002583974 1280.6796318824292 453.5086002583974L1280.6796318824292 453.5086002583974ZM1280.6796318824292 439.58333114481417Q1295.6738531893789 439.58333114481417 1303.676549339716 429.70274600613055Q1311.6792454900533 419.82216086744705 1311.6792454900533 400.8988179848805L1311.6792454900533 400.8988179848805Q1311.6792454900533 382.379943499804 1303.5609869404332 372.2971241623755Q1295.471618990634 362.2143048249469 1280.6796318824292 362.2143048249469L1280.6796318824292 362.2143048249469Q1265.9165353740452 362.2143048249469 1257.798276824425 372.2971241623755Q1249.7089088746256 382.379943499804 1249.7089088746256 400.8988179848805L1249.7089088746256 400.8988179848805Q1249.7089088746256 419.619926668702 1257.7116050249629 429.5871836068477Q1265.7143011753003 439.58333114481417 1280.6796318824292 439.58333114481417L1280.6796318824292 439.58333114481417Z " fill="#083d77" transform="matrix(0.6584116992164669,0,0,0.6584116992164669,0,50.63334186449676)"/></g></svg>